<svg width="17" height="18" viewBox="0 0 17 18" fill="none" xmlns="http://www.w3.org/2000/svg">
<g id="Icon">
<path id="Vector" d="M11.2321 9.45536H8.95536V11.7321C8.95536 11.8529 8.90738 11.9687 8.82199 12.0541C8.73659 12.1395 8.62077 12.1875 8.5 12.1875C8.37923 12.1875 8.26341 12.1395 8.17801 12.0541C8.09262 11.9687 8.04464 11.8529 8.04464 11.7321V9.45536H5.76786C5.64709 9.45536 5.53127 9.40738 5.44587 9.32199C5.36048 9.23659 5.3125 9.12077 5.3125 9C5.3125 8.87923 5.36048 8.76341 5.44587 8.67801C5.53127 8.59262 5.64709 8.54464 5.76786 8.54464H8.04464V6.26786C8.04464 6.14709 8.09262 6.03127 8.17801 5.94587C8.26341 5.86047 8.37923 5.8125 8.5 5.8125C8.62077 5.8125 8.73659 5.86047 8.82199 5.94587C8.90738 6.03127 8.95536 6.14709 8.95536 6.26786V8.54464H11.2321C11.3529 8.54464 11.4687 8.59262 11.5541 8.67801C11.6395 8.76341 11.6875 8.87923 11.6875 9C11.6875 9.12077 11.6395 9.23659 11.5541 9.32199C11.4687 9.40738 11.3529 9.45536 11.2321 9.45536Z" fill="white"/>
<circle id="Ellipse 1851" cx="8.5" cy="9" r="7.79167" stroke="white" stroke-width="1.41667"/>
</g>
</svg>
