<svg width="17" height="17" viewBox="0 0 17 17" fill="none" xmlns="http://www.w3.org/2000/svg">
<g id="Button Edit Resi / New">
<path id="Vector" d="M9.07692 1H3.30769C3.00167 1 2.70819 1.12157 2.4918 1.33795C2.27541 1.55434 2.15385 1.84783 2.15385 2.15385V12.5385L1 16L5.61538 14.8462H14.8462C15.1522 14.8462 15.4457 14.7246 15.662 14.5082C15.8784 14.2918 16 13.9983 16 13.6923V7.92308" stroke="#3A6BE8" stroke-width="1.15385" stroke-linecap="round" stroke-linejoin="round"/>
<path id="Vector_2" d="M10.0709 9.81141L6.60938 10.4345L7.1863 6.9268L12.644 1.49218C12.7512 1.38389 12.8788 1.29793 13.0194 1.23926C13.16 1.1806 13.3109 1.15039 13.4632 1.15039C13.6156 1.15039 13.7664 1.1806 13.9071 1.23926C14.0477 1.29793 14.1753 1.38389 14.2825 1.49218L15.5055 2.71526C15.6135 2.8226 15.6993 2.95024 15.7577 3.09084C15.8162 3.23144 15.8464 3.38221 15.8464 3.53449C15.8464 3.68677 15.8162 3.83754 15.7577 3.97814C15.6993 4.11874 15.6135 4.24638 15.5055 4.35372L10.0709 9.81141Z" stroke="#3A6BE8" stroke-width="1.15385" stroke-linecap="round" stroke-linejoin="round"/>
</g>
</svg>
