<svg width="48" height="48" viewBox="0 0 48 48" fill="none" xmlns="http://www.w3.org/2000/svg">
<g id="Icon=Plus, State=Green">
<path id="Vector" d="M31.7143 25.2857H25.2857V31.7143C25.2857 32.0553 25.1503 32.3823 24.9091 32.6234C24.668 32.8645 24.341 33 24 33C23.659 33 23.332 32.8645 23.0909 32.6234C22.8497 32.3823 22.7143 32.0553 22.7143 31.7143V25.2857H16.2857C15.9447 25.2857 15.6177 25.1503 15.3766 24.9091C15.1355 24.668 15 24.341 15 24C15 23.659 15.1355 23.332 15.3766 23.0909C15.6177 22.8497 15.9447 22.7143 16.2857 22.7143H22.7143V16.2857C22.7143 15.9447 22.8497 15.6177 23.0909 15.3766C23.332 15.1355 23.659 15 24 15C24.341 15 24.668 15.1355 24.9091 15.3766C25.1503 15.6177 25.2857 15.9447 25.2857 16.2857V22.7143H31.7143C32.0553 22.7143 32.3823 22.8497 32.6234 23.0909C32.8645 23.332 33 23.659 33 24C33 24.341 32.8645 24.668 32.6234 24.9091C32.3823 25.1503 32.0553 25.2857 31.7143 25.2857Z" fill="#24A240"/>
<circle id="Ellipse 1851" cx="24" cy="24" r="22" stroke="#24A240" stroke-width="4"/>
</g>
</svg>
