<svg width="17" height="17" viewBox="0 0 17 17" fill="none" xmlns="http://www.w3.org/2000/svg">
<g id="Ikon Hover Detail Admin">
<path id="Vector" fill-rule="evenodd" clip-rule="evenodd" d="M8.28043 0.691406C4.08868 0.691406 0.69043 4.08966 0.69043 8.28141C0.69043 12.4732 4.08868 15.8714 8.28043 15.8714C12.4722 15.8714 15.8704 12.4732 15.8704 8.28141C15.8704 4.08966 12.4722 0.691406 8.28043 0.691406ZM7.93543 4.14141C7.75243 4.14141 7.57693 4.2141 7.44753 4.3435C7.31813 4.4729 7.24543 4.64841 7.24543 4.83141C7.24543 5.01441 7.31813 5.18991 7.44753 5.31931C7.57693 5.44871 7.75243 5.52141 7.93543 5.52141H8.28043C8.46343 5.52141 8.63893 5.44871 8.76833 5.31931C8.89773 5.18991 8.97043 5.01441 8.97043 4.83141C8.97043 4.64841 8.89773 4.4729 8.76833 4.3435C8.63893 4.2141 8.46343 4.14141 8.28043 4.14141H7.93543ZM6.90043 6.90141C6.71743 6.90141 6.54193 6.9741 6.41253 7.1035C6.28313 7.2329 6.21043 7.40841 6.21043 7.59141C6.21043 7.77441 6.28313 7.94991 6.41253 8.07931C6.54193 8.20871 6.71743 8.28141 6.90043 8.28141H7.59043V10.3514H6.90043C6.71743 10.3514 6.54193 10.4241 6.41253 10.5535C6.28313 10.6829 6.21043 10.8584 6.21043 11.0414C6.21043 11.2244 6.28313 11.3999 6.41253 11.5293C6.54193 11.6587 6.71743 11.7314 6.90043 11.7314H9.66043C9.84343 11.7314 10.0189 11.6587 10.1483 11.5293C10.2777 11.3999 10.3504 11.2244 10.3504 11.0414C10.3504 10.8584 10.2777 10.6829 10.1483 10.5535C10.0189 10.4241 9.84343 10.3514 9.66043 10.3514H8.97043V7.59141C8.97043 7.40841 8.89773 7.2329 8.76833 7.1035C8.63893 6.9741 8.46343 6.90141 8.28043 6.90141H6.90043Z" fill="#202B46"/>
</g>
</svg>
