<svg width="22" height="31" viewBox="0 0 22 31" fill="none" xmlns="http://www.w3.org/2000/svg">
<g id="Icon">
<path id="Vector" d="M13.6959 0.922852H2.92668C2.21264 0.922852 1.52784 1.23406 1.02293 1.78801C0.518028 2.34197 0.234375 3.09329 0.234375 3.8767V27.5075C0.234375 28.2909 0.518028 29.0422 1.02293 29.5962C1.52784 30.1501 2.21264 30.4613 2.92668 30.4613H19.0805C19.7946 30.4613 20.4794 30.1501 20.9843 29.5962C21.4892 29.0422 21.7728 28.2909 21.7728 27.5075V9.78439L13.6959 0.922852ZM19.0805 27.5075H2.92668V3.8767H12.3498V11.2613H19.0805V27.5075Z" fill="#24A240"/>
<path id="Vector 1480" d="M5.77344 15.0771H15.9273" stroke="#24A240" stroke-width="1.23077" stroke-linecap="round"/>
<path id="Vector 1481" d="M5.77344 18.1533H15.9273" stroke="#24A240" stroke-width="1.23077" stroke-linecap="round"/>
<path id="Vector 1482" d="M5.77344 21.2305H15.9273" stroke="#24A240" stroke-width="1.23077" stroke-linecap="round"/>
</g>
</svg>
