<svg width="32" height="33" viewBox="0 0 32 33" fill="none" xmlns="http://www.w3.org/2000/svg">
<g id="Logo Packing">
<path id="Vector" d="M9.03771 2.9781L2.28571 10.6947V30.4067H29.7143V10.6947L22.9623 2.9781H9.03771ZM8.51886 0.692383H23.4811C23.6438 0.692264 23.8046 0.726865 23.9528 0.793875C24.101 0.860884 24.2332 0.958758 24.3406 1.08095L31.7166 9.51296C31.899 9.72104 31.9997 9.98824 32 10.265V31.5495C32 31.8526 31.8796 32.1433 31.6653 32.3577C31.4509 32.572 31.1602 32.6924 30.8571 32.6924H1.14286C0.839753 32.6924 0.549063 32.572 0.334735 32.3577C0.120408 32.1433 4.00252e-07 31.8526 4.00252e-07 31.5495V10.265C-0.000231727 9.98745 0.100511 9.71935 0.283429 9.51067L7.65714 1.08553C7.76433 0.962206 7.89671 0.863302 8.04536 0.795483C8.19401 0.727664 8.35547 0.692507 8.51886 0.692383Z" fill="#24A240"/>
<path id="Vector_2" d="M0 9.83496H32V12.1207H0V9.83496Z" fill="#24A240"/>
<path id="Vector_3" d="M13.7154 10.1164V21.2638H18.2868V10.1164L16.504 2.9781H15.4983L13.7154 10.1164ZM13.7154 0.692383H18.2868L20.5725 9.83524V22.4067C20.5725 22.7098 20.4521 23.0005 20.2378 23.2148C20.0235 23.4291 19.7328 23.5495 19.4297 23.5495H12.5725C12.2694 23.5495 11.9788 23.4291 11.7644 23.2148C11.5501 23.0005 11.4297 22.7098 11.4297 22.4067V9.83524L13.7154 0.692383Z" fill="#24A240"/>
</g>
</svg>
