<svg width="32" height="33" viewBox="0 0 32 33" fill="none" xmlns="http://www.w3.org/2000/svg">
<path id="Vector" d="M8 12.6914C7.68483 12.6914 7.37274 12.7535 7.08156 12.8741C6.79038 12.9947 6.5258 13.1715 6.30294 13.3944C6.08008 13.6172 5.9033 13.8818 5.78269 14.173C5.66208 14.4641 5.6 14.7762 5.6 15.0914C5.6 15.4066 5.66208 15.7187 5.78269 16.0098C5.9033 16.301 6.08008 16.5656 6.30294 16.7885C6.5258 17.0113 6.79038 17.1881 7.08156 17.3087C7.37274 17.4293 7.68483 17.4914 8 17.4914C8.63652 17.4914 9.24697 17.2386 9.69706 16.7885C10.1471 16.3384 10.4 15.7279 10.4 15.0914C10.4 14.4549 10.1471 13.8444 9.69706 13.3944C9.24697 12.9443 8.63652 12.6914 8 12.6914ZM8 15.8914C7.78783 15.8914 7.58434 15.8071 7.43431 15.6571C7.28429 15.5071 7.2 15.3036 7.2 15.0914C7.2 14.8792 7.28429 14.6757 7.43431 14.5257C7.58434 14.3757 7.78783 14.2914 8 14.2914C8.21217 14.2914 8.41566 14.3757 8.56569 14.5257C8.71571 14.6757 8.8 14.8792 8.8 15.0914C8.8 15.3036 8.71571 15.5071 8.56569 15.6571C8.41566 15.8071 8.21217 15.8914 8 15.8914ZM28 7.09141H25.6V1.49141C25.6 1.27923 25.5157 1.07575 25.3657 0.925721C25.2157 0.775692 25.0122 0.691406 24.8 0.691406H7.2C6.98783 0.691406 6.78434 0.775692 6.63432 0.925721C6.48429 1.07575 6.4 1.27923 6.4 1.49141V7.09141H4C2.93939 7.09225 1.92247 7.51395 1.17251 8.26392C0.422547 9.01388 0.000847468 10.0308 0 11.0914V21.4914C0.00127074 22.7641 0.507392 23.9842 1.40729 24.8841C2.30719 25.784 3.52735 26.2901 4.8 26.2914H6.4V31.8914C6.4 32.1036 6.48429 32.3071 6.63432 32.4571C6.78434 32.6071 6.98783 32.6914 7.2 32.6914H24.8C25.0122 32.6914 25.2157 32.6071 25.3657 32.4571C25.5157 32.3071 25.6 32.1036 25.6 31.8914V26.2914H27.2C28.4727 26.2901 29.6928 25.784 30.5927 24.8841C31.4926 23.9842 31.9987 22.7641 32 21.4914V11.0914C31.9992 10.0308 31.5775 9.01388 30.8275 8.26392C30.0775 7.51395 29.0606 7.09225 28 7.09141ZM8 2.29141H24V7.09141H8V2.29141ZM24 31.0914H8V21.4914H24V31.0914ZM30.4 21.4914C30.3987 22.3397 30.0612 23.1529 29.4613 23.7527C28.8615 24.3526 28.0483 24.6901 27.2 24.6914H25.6V20.6914C25.6 20.4792 25.5157 20.2757 25.3657 20.1257C25.2157 19.9757 25.0122 19.8914 24.8 19.8914H7.2C6.98783 19.8914 6.78434 19.9757 6.63432 20.1257C6.48429 20.2757 6.4 20.4792 6.4 20.6914V24.6914H4.8C3.9517 24.6901 3.1385 24.3526 2.53866 23.7527C1.93882 23.1529 1.60127 22.3397 1.6 21.4914V11.0914C1.6 10.4549 1.85286 9.84444 2.30294 9.39435C2.75303 8.94426 3.36348 8.69141 4 8.69141H28C28.6365 8.69141 29.247 8.94426 29.6971 9.39435C30.1471 9.84444 30.4 10.4549 30.4 11.0914V21.4914Z" fill="#CFCECE"/>
</svg>
