<svg width="137" height="37" viewBox="0 0 137 37" fill="none" xmlns="http://www.w3.org/2000/svg">
<g id="Shape">
<ellipse id="Ellipse 1958" cx="3.33841" cy="13.3343" rx="3.33841" ry="3.93191" fill="white"/>
<ellipse id="Ellipse 1958_2" cx="3.33841" cy="33.0686" rx="3.33841" ry="3.93191" fill="white"/>
<ellipse id="Ellipse 1958_3" cx="21.8853" cy="13.3343" rx="3.33841" ry="3.93191" fill="white"/>
<ellipse id="Ellipse 1958_4" cx="21.8853" cy="33.0686" rx="3.33841" ry="3.93191" fill="white"/>
<ellipse id="Ellipse 1958_5" cx="40.4322" cy="13.3343" rx="3.33841" ry="3.93191" fill="white"/>
<ellipse id="Ellipse 1958_6" cx="40.4322" cy="33.0686" rx="3.33841" ry="3.93191" fill="white"/>
<ellipse id="Ellipse 1958_7" cx="58.979" cy="13.3343" rx="3.33841" ry="3.93191" fill="white"/>
<ellipse id="Ellipse 1958_8" cx="58.979" cy="33.0686" rx="3.33841" ry="3.93191" fill="white"/>
<ellipse id="Ellipse 1958_9" cx="77.5249" cy="13.3343" rx="3.33841" ry="3.93191" fill="white"/>
<ellipse id="Ellipse 1958_10" cx="77.5249" cy="33.0686" rx="3.33841" ry="3.93191" fill="white"/>
<ellipse id="Ellipse 1958_11" cx="96.0718" cy="13.3343" rx="3.33841" ry="3.93191" fill="white"/>
<ellipse id="Ellipse 1958_12" cx="96.0718" cy="33.0686" rx="3.33841" ry="3.93191" fill="white"/>
<ellipse id="Ellipse 1958_13" cx="114.619" cy="13.3343" rx="3.33841" ry="3.93191" fill="white"/>
<ellipse id="Ellipse 1958_14" cx="114.619" cy="33.0686" rx="3.33841" ry="3.93191" fill="white"/>
<ellipse id="Ellipse 1958_15" cx="133.166" cy="13.3343" rx="3.33841" ry="3.93191" fill="white"/>
<ellipse id="Ellipse 1958_16" cx="133.166" cy="33.0686" rx="3.33841" ry="3.93191" fill="white"/>
</g>
</svg>
</svg>