<svg width="32" height="33" viewBox="0 0 32 33" fill="none" xmlns="http://www.w3.org/2000/svg">
<path id="Vector" d="M8 12.6924C7.68483 12.6924 7.37274 12.7545 7.08156 12.8751C6.79038 12.9957 6.5258 13.1725 6.30294 13.3953C6.08008 13.6182 5.9033 13.8828 5.78269 14.1739C5.66208 14.4651 5.6 14.7772 5.6 15.0924C5.6 15.4076 5.66208 15.7196 5.78269 16.0108C5.9033 16.302 6.08008 16.5666 6.30294 16.7894C6.5258 17.0123 6.79038 17.1891 7.08156 17.3097C7.37274 17.4303 7.68483 17.4924 8 17.4924C8.63652 17.4924 9.24697 17.2395 9.69706 16.7894C10.1471 16.3394 10.4 15.7289 10.4 15.0924C10.4 14.4559 10.1471 13.8454 9.69706 13.3953C9.24697 12.9452 8.63652 12.6924 8 12.6924ZM8 15.8924C7.78783 15.8924 7.58434 15.8081 7.43431 15.6581C7.28429 15.508 7.2 15.3046 7.2 15.0924C7.2 14.8802 7.28429 14.6767 7.43431 14.5267C7.58434 14.3767 7.78783 14.2924 8 14.2924C8.21217 14.2924 8.41566 14.3767 8.56569 14.5267C8.71571 14.6767 8.8 14.8802 8.8 15.0924C8.8 15.3046 8.71571 15.508 8.56569 15.6581C8.41566 15.8081 8.21217 15.8924 8 15.8924ZM28 7.09238H25.6V1.49238C25.6 1.28021 25.5157 1.07673 25.3657 0.926698C25.2157 0.776668 25.0122 0.692383 24.8 0.692383H7.2C6.98783 0.692383 6.78434 0.776668 6.63432 0.926698C6.48429 1.07673 6.4 1.28021 6.4 1.49238V7.09238H4C2.93939 7.09323 1.92247 7.51493 1.17251 8.26489C0.422547 9.01485 0.000847468 10.0318 0 11.0924V21.4924C0.00127074 22.765 0.507392 23.9852 1.40729 24.8851C2.30719 25.785 3.52735 26.2911 4.8 26.2924H6.4V31.8924C6.4 32.1046 6.48429 32.308 6.63432 32.4581C6.78434 32.6081 6.98783 32.6924 7.2 32.6924H24.8C25.0122 32.6924 25.2157 32.6081 25.3657 32.4581C25.5157 32.308 25.6 32.1046 25.6 31.8924V26.2924H27.2C28.4727 26.2911 29.6928 25.785 30.5927 24.8851C31.4926 23.9852 31.9987 22.765 32 21.4924V11.0924C31.9992 10.0318 31.5775 9.01485 30.8275 8.26489C30.0775 7.51493 29.0606 7.09323 28 7.09238ZM8 2.29238H24V7.09238H8V2.29238ZM24 31.0924H8V21.4924H24V31.0924ZM30.4 21.4924C30.3987 22.3407 30.0612 23.1539 29.4613 23.7537C28.8615 24.3536 28.0483 24.6911 27.2 24.6924H25.6V20.6924C25.6 20.4802 25.5157 20.2767 25.3657 20.1267C25.2157 19.9767 25.0122 19.8924 24.8 19.8924H7.2C6.98783 19.8924 6.78434 19.9767 6.63432 20.1267C6.48429 20.2767 6.4 20.4802 6.4 20.6924V24.6924H4.8C3.9517 24.6911 3.1385 24.3536 2.53866 23.7537C1.93882 23.1539 1.60127 22.3407 1.6 21.4924V11.0924C1.6 10.4559 1.85286 9.84541 2.30294 9.39533C2.75303 8.94524 3.36348 8.69238 4 8.69238H28C28.6365 8.69238 29.247 8.94524 29.6971 9.39533C30.1471 9.84541 30.4 10.4559 30.4 11.0924V21.4924Z" fill="#24A240"/>
</svg>
