<svg width="42" height="33" viewBox="0 0 42 33" fill="none" xmlns="http://www.w3.org/2000/svg">
<g id="Logo Diantar">
<rect id="Box" x="7.4375" y="1.69238" width="19.7476" height="25" stroke="#24A240" stroke-width="2"/>
<path id="Head" d="M35.1755 11.6924H27.7969V19.1924M35.1755 11.6924L41.0008 19.1924M35.1755 11.6924V19.1924M41.0008 19.1924V27.1924H27.7969V19.1924M41.0008 19.1924H35.1755M27.7969 19.1924H35.1755" stroke="#24A240" stroke-width="2"/>
<path id="Ellipse 1973" d="M34.9493 29.6924C34.9493 31.0468 34.1333 31.6924 33.6192 31.6924C33.105 31.6924 32.2891 31.0468 32.2891 29.6924C32.2891 28.338 33.105 27.6924 33.6192 27.6924C34.1333 27.6924 34.9493 28.338 34.9493 29.6924Z" stroke="#24A240" stroke-width="2"/>
<path id="Ellipse 1974" d="M12.4258 29.6924C12.4258 31.0468 11.6099 31.6924 11.0957 31.6924C10.5816 31.6924 9.76562 31.0468 9.76562 29.6924C9.76562 28.338 10.5816 27.6924 11.0957 27.6924C11.6099 27.6924 12.4258 28.338 12.4258 29.6924Z" stroke="#24A240" stroke-width="2"/>
<path id="Vector 1483" d="M1 8.69238C0.447715 8.69238 0 9.1401 0 9.69238C0 10.2447 0.447715 10.6924 1 10.6924V8.69238ZM1 10.6924H23.5243V8.69238H1V10.6924Z" fill="#24A240"/>
<path id="Vector 1484" d="M4.88281 12.6924C4.33053 12.6924 3.88281 13.1401 3.88281 13.6924C3.88281 14.2447 4.33053 14.6924 4.88281 14.6924V12.6924ZM4.88281 14.6924H23.5236V12.6924H4.88281V14.6924Z" fill="#24A240"/>
<path id="Vector 1485" d="M1 17.6924C0.447715 17.6924 2.89661e-08 18.1401 0 18.6924C-2.89661e-08 19.2447 0.447715 19.6924 1 19.6924L1 17.6924ZM1 19.6924L23.5243 19.6924L23.5243 17.6924L1 17.6924L1 19.6924Z" fill="#24A240"/>
</g>
</svg>
