<svg width="18" height="16" viewBox="0 0 18 16" fill="none" xmlns="http://www.w3.org/2000/svg">
<g id="Wallet">
<path id="Vector" d="M14.7506 4.11328H2.79355C1.803 4.11328 1 4.91629 1 5.90685V13.0811C1 14.0717 1.803 14.8747 2.79355 14.8747H14.7506C15.7411 14.8747 16.5441 14.0717 16.5441 13.0811V5.90685C16.5441 4.91629 15.7411 4.11328 14.7506 4.11328Z" stroke="white" stroke-width="1.19571" stroke-linejoin="round"/>
<path id="Vector_2" d="M14.5772 4.11368V2.9927C14.5771 2.71776 14.5164 2.44623 14.3992 2.19749C14.2821 1.94874 14.1116 1.72891 13.8997 1.55367C13.6879 1.37843 13.4399 1.25211 13.1736 1.18372C12.9074 1.11533 12.6293 1.10656 12.3592 1.15803L2.51854 2.83763C2.0912 2.91907 1.70567 3.14709 1.42845 3.48236C1.15123 3.81763 0.999705 4.23913 1 4.67417V6.50511" stroke="white" stroke-width="1.19571" stroke-linejoin="round"/>
<path id="Vector_3" d="M10.822 9.83462H9.11389V11.5428C9.11389 11.6334 9.0779 11.7203 9.01383 11.7844C8.94977 11.8484 8.86287 11.8844 8.77227 11.8844C8.68166 11.8844 8.59476 11.8484 8.5307 11.7844C8.46663 11.7203 8.43064 11.6334 8.43064 11.5428V9.83462H6.72249C6.63188 9.83462 6.54499 9.79863 6.48092 9.73456C6.41685 9.67049 6.38086 9.5836 6.38086 9.49299C6.38086 9.40238 6.41685 9.31549 6.48092 9.25142C6.54499 9.18735 6.63188 9.15136 6.72249 9.15136H8.43064V7.44319C8.43064 7.35259 8.46663 7.26569 8.5307 7.20162C8.59476 7.13756 8.68166 7.10156 8.77227 7.10156C8.86287 7.10156 8.94977 7.13756 9.01383 7.20162C9.0779 7.26569 9.11389 7.35259 9.11389 7.44319V9.15136H10.822C10.9126 9.15136 10.9995 9.18735 11.0636 9.25142C11.1277 9.31549 11.1637 9.40238 11.1637 9.49299C11.1637 9.5836 11.1277 9.67049 11.0636 9.73456C10.9995 9.79863 10.9126 9.83462 10.822 9.83462Z" fill="white"/>
</g>
</svg>
