<svg width="32" height="31" viewBox="0 0 32 31" fill="none" xmlns="http://www.w3.org/2000/svg">
<g id="Icon">
<path id="Vector" d="M27.3646 8.77246H4.64266C2.76032 8.77246 1.23438 10.299 1.23438 12.1821V25.8209C1.23438 27.704 2.76032 29.2306 4.64266 29.2306H27.3646C29.2469 29.2306 30.7728 27.704 30.7728 25.8209V12.1821C30.7728 10.299 29.2469 8.77246 27.3646 8.77246Z" stroke="#D8CF06" stroke-width="2.46154" stroke-linejoin="round"/>
<path id="Vector_2" d="M27.0351 9.00276V6.43407C27.0349 5.80406 26.9194 5.18186 26.6969 4.61186C26.4744 4.04187 26.1502 3.53813 25.7476 3.13658C25.3451 2.73503 24.8739 2.44557 24.3679 2.28886C23.8619 2.13215 23.3334 2.11204 22.8202 2.22998L4.12006 6.07873C3.30798 6.26535 2.57536 6.78784 2.04856 7.5561C1.52177 8.32437 1.23382 9.29023 1.23438 10.2871V14.4826" stroke="#D8CF06" stroke-width="2.46154" stroke-linejoin="round"/>
<path id="Vector_3" d="M23.9597 24.0726C23.5103 24.0726 23.071 23.9119 22.6973 23.6109C22.3237 23.3098 22.0324 22.8819 21.8605 22.3812C21.6885 21.8806 21.6435 21.3297 21.7312 20.7982C21.8188 20.2667 22.0352 19.7785 22.353 19.3953C22.6708 19.0121 23.0756 18.7511 23.5164 18.6454C23.9572 18.5397 24.414 18.594 24.8292 18.8013C25.2444 19.0087 25.5993 19.3599 25.8489 19.8105C26.0986 20.2611 26.2319 20.7908 26.2319 21.3327C26.2319 22.0594 25.9925 22.7563 25.5664 23.2701C25.1403 23.784 24.5623 24.0726 23.9597 24.0726Z" fill="#D8CF06"/>
</g>
</svg>
